<svg width="15" height="15" viewBox="0 0 15 15" fill="none" xmlns="http://www.w3.org/2000/svg">
<path d="M8.75 15H6.25C5.91848 15 5.60054 14.8683 5.36612 14.6339C5.1317 14.3995 5 14.0815 5 13.75V9.00625L0.36875 4.375C0.134008 4.14166 0.00139549 3.82474 0 3.49375V1.25C0 0.918479 0.131696 0.600537 0.366116 0.366116C0.600537 0.131696 0.918479 0 1.25 0H13.75C14.0815 0 14.3995 0.131696 14.6339 0.366116C14.8683 0.600537 15 0.918479 15 1.25V3.49375C14.9986 3.82474 14.866 4.14166 14.6313 4.375L10 9.00625V13.75C10 14.0815 9.8683 14.3995 9.63388 14.6339C9.39946 14.8683 9.08152 15 8.75 15ZM1.25 1.25V3.49375L6.25 8.49375V13.75H8.75V8.49375L13.75 3.49375V1.25H1.25Z" fill="#212121"/>
</svg>
