<svg width="14" height="14" viewBox="0 0 14 14" fill="none" xmlns="http://www.w3.org/2000/svg">
<path fill-rule="evenodd" clip-rule="evenodd" d="M13.9473 13.2473L9.64728 8.94728C11.5473 6.64728 11.2473 3.14728 8.94728 1.24728C6.64728 -0.652721 3.14728 -0.35272 1.24728 1.94728C-0.652721 4.24728 -0.35272 7.74728 1.94728 9.64728C3.94728 11.3473 6.94728 11.3473 8.94728 9.64728L13.2473 13.9473L13.9473 13.2473ZM0.947279 5.44728C0.947279 2.94728 2.94728 0.947279 5.44728 0.947279C7.94728 0.947279 9.94728 2.94728 9.94728 5.44728C9.94728 7.94728 7.94728 9.94728 5.44728 9.94728C2.94728 9.94728 0.947279 7.94728 0.947279 5.44728Z" fill="#616161"/>
</svg>
