<svg width="17" height="18" viewBox="0 0 17 18" fill="none" xmlns="http://www.w3.org/2000/svg">
<path d="M15.367 9.20023C15.367 9.04398 15.367 8.88773 15.367 8.72523C15.367 8.56273 15.367 8.40648 15.367 8.24398L16.567 7.19398C16.7882 6.99901 16.9333 6.73212 16.9768 6.44048C17.0203 6.14884 16.9592 5.85122 16.8045 5.60023L15.3295 3.10023C15.2199 2.91039 15.0623 2.75272 14.8725 2.64302C14.6827 2.53332 14.4674 2.47545 14.2482 2.47523C14.1124 2.47419 13.9773 2.4953 13.8482 2.53773L12.3295 3.05023C12.0673 2.87598 11.7937 2.71939 11.5107 2.58148L11.192 1.00648C11.1348 0.718733 10.9783 0.460255 10.7498 0.276294C10.5212 0.0923323 10.2353 -0.00539137 9.94198 0.000229644H7.01698C6.72367 -0.00539137 6.43772 0.0923323 6.2092 0.276294C5.98067 0.460255 5.82413 0.718733 5.76698 1.00648L5.44823 2.58148C5.16319 2.71935 4.88759 2.87595 4.62323 3.05023L3.13573 2.51273C3.00529 2.47874 2.87021 2.46608 2.73573 2.47523C2.51653 2.47545 2.30124 2.53332 2.11146 2.64302C1.92168 2.75272 1.76408 2.91039 1.65448 3.10023L0.179479 5.60023C0.033596 5.85085 -0.0206136 6.14439 0.0261349 6.43058C0.0728834 6.71677 0.217681 6.97781 0.435729 7.16898L1.61698 8.25023C1.61698 8.40648 1.61698 8.56273 1.61698 8.72523C1.61698 8.88773 1.61698 9.04398 1.61698 9.20648L0.435729 10.2565C0.211522 10.449 0.0627638 10.7147 0.0158533 11.0064C-0.0310572 11.2982 0.026914 11.5972 0.179479 11.8502L1.65448 14.3502C1.76408 14.5401 1.92168 14.6977 2.11146 14.8074C2.30124 14.9171 2.51653 14.975 2.73573 14.9752C2.87157 14.9763 3.00668 14.9552 3.13573 14.9127L4.65448 14.4002C4.91669 14.5745 5.19021 14.7311 5.47323 14.869L5.79198 16.444C5.84913 16.7317 6.00567 16.9902 6.2342 17.1742C6.46272 17.3581 6.74867 17.4558 7.04198 17.4502H9.99198C10.2853 17.4558 10.5712 17.3581 10.7998 17.1742C11.0283 16.9902 11.1848 16.7317 11.242 16.444L11.5607 14.869C11.8458 14.7311 12.1214 14.5745 12.3857 14.4002L13.8982 14.9127C14.0273 14.9552 14.1624 14.9763 14.2982 14.9752C14.5174 14.975 14.7327 14.9171 14.9225 14.8074C15.1123 14.6977 15.2699 14.5401 15.3795 14.3502L16.8045 11.8502C16.9504 11.5996 17.0046 11.3061 16.9578 11.0199C16.9111 10.7337 16.7663 10.4727 16.5482 10.2815L15.367 9.20023ZM14.2482 13.7252L12.1045 13.0002C11.6026 13.4253 11.0291 13.7576 10.4107 13.9815L9.96698 16.2252H7.01698L6.57323 14.0065C5.95974 13.7762 5.3893 13.4445 4.88573 13.0252L2.73573 13.7252L1.26073 11.2252L2.96073 9.72523C2.84516 9.07827 2.84516 8.41594 2.96073 7.76898L1.26073 6.22523L2.73573 3.72523L4.87948 4.45023C5.38131 4.02516 5.95486 3.69289 6.57323 3.46898L7.01698 1.22523H9.96698L10.4107 3.44398C11.0242 3.67424 11.5947 4.00594 12.0982 4.42523L14.2482 3.72523L15.7232 6.22523L14.0232 7.72523C14.1388 8.37219 14.1388 9.03452 14.0232 9.68148L15.7232 11.2252L14.2482 13.7252Z" fill="#616161"/>
<path d="M8.49198 12.4752C7.7503 12.4752 7.02528 12.2553 6.40859 11.8432C5.79191 11.4312 5.31126 10.8455 5.02743 10.1603C4.7436 9.47507 4.66934 8.72107 4.81403 7.99364C4.95873 7.26621 5.31588 6.59803 5.84033 6.07358C6.36478 5.54913 7.03296 5.19198 7.76039 5.04729C8.48782 4.90259 9.24182 4.97685 9.92704 5.26068C10.6123 5.54451 11.1979 6.02516 11.61 6.64184C12.022 7.25853 12.242 7.98355 12.242 8.72523C12.247 9.21908 12.1534 9.70897 11.9667 10.1662C11.7801 10.6234 11.504 11.0388 11.1548 11.3881C10.8056 11.7373 10.3902 12.0133 9.93295 12.2C9.47572 12.3867 8.98583 12.4802 8.49198 12.4752ZM8.49198 6.22523C8.16157 6.21753 7.83303 6.27694 7.52624 6.39985C7.21945 6.52276 6.94077 6.70663 6.70707 6.94032C6.47338 7.17402 6.28951 7.4527 6.1666 7.75949C6.04369 8.06628 5.98428 8.39482 5.99198 8.72523C5.98428 9.05564 6.04369 9.38418 6.1666 9.69097C6.28951 9.99776 6.47338 10.2764 6.70707 10.5101C6.94077 10.7438 7.21945 10.9277 7.52624 11.0506C7.83303 11.1735 8.16157 11.2329 8.49198 11.2252C8.82239 11.2329 9.15093 11.1735 9.45772 11.0506C9.76451 10.9277 10.0432 10.7438 10.2769 10.5101C10.5106 10.2764 10.6944 9.99776 10.8174 9.69097C10.9403 9.38418 10.9997 9.05564 10.992 8.72523C10.9997 8.39482 10.9403 8.06628 10.8174 7.75949C10.6944 7.4527 10.5106 7.17402 10.2769 6.94032C10.0432 6.70663 9.76451 6.52276 9.45772 6.39985C9.15093 6.27694 8.82239 6.21753 8.49198 6.22523Z" fill="#616161"/>
</svg>
