<svg width="18" height="18" viewBox="0 0 18 18" fill="none" xmlns="http://www.w3.org/2000/svg">
<path d="M8.75 3.75C8.13194 3.75 7.52775 3.93328 7.01385 4.27666C6.49994 4.62004 6.0994 5.1081 5.86288 5.67911C5.62636 6.25013 5.56447 6.87847 5.68505 7.48466C5.80563 8.09085 6.10326 8.64767 6.5403 9.08471C6.97733 9.52175 7.53416 9.81938 8.14035 9.93995C8.74654 10.0605 9.37487 9.99865 9.94589 9.76212C10.5169 9.5256 11.005 9.12506 11.3483 8.61116C11.6917 8.09725 11.875 7.49307 11.875 6.875C11.875 6.0462 11.5458 5.25134 10.9597 4.66529C10.3737 4.07924 9.57881 3.75 8.75 3.75ZM8.75 8.75C8.37916 8.75 8.01665 8.64003 7.70831 8.43401C7.39997 8.22798 7.15964 7.93514 7.01773 7.59253C6.87581 7.24992 6.83868 6.87292 6.91103 6.50921C6.98338 6.14549 7.16195 5.8114 7.42418 5.54917C7.6864 5.28695 8.0205 5.10837 8.38421 5.03603C8.74792 4.96368 9.12492 5.00081 9.46754 5.14273C9.81015 5.28464 10.103 5.52496 10.309 5.83331C10.515 6.14165 10.625 6.50416 10.625 6.875C10.6244 7.37211 10.4267 7.84869 10.0752 8.2002C9.7237 8.55171 9.24711 8.74944 8.75 8.75Z" fill="#616161"/>
<path d="M8.75 0C7.01942 0 5.32769 0.513179 3.88876 1.47464C2.44983 2.4361 1.32832 3.80267 0.666058 5.40152C0.00379123 7.00037 -0.169488 8.75971 0.168133 10.457C0.505753 12.1544 1.33911 13.7135 2.56282 14.9372C3.78653 16.1609 5.34563 16.9942 7.04296 17.3319C8.7403 17.6695 10.4996 17.4962 12.0985 16.8339C13.6973 16.1717 15.0639 15.0502 16.0254 13.6112C16.9868 12.1723 17.5 10.4806 17.5 8.75C17.4974 6.43016 16.5747 4.20608 14.9343 2.5657C13.2939 0.925325 11.0698 0.00261369 8.75 0ZM5 15.2353V14.375C5.00055 13.8779 5.19827 13.4013 5.54978 13.0498C5.90129 12.6983 6.37789 12.5005 6.875 12.5H10.625C11.1221 12.5005 11.5987 12.6983 11.9502 13.0498C12.3017 13.4013 12.4995 13.8779 12.5 14.375V15.2353C11.362 15.8998 10.0678 16.25 8.75 16.25C7.43218 16.25 6.13802 15.8998 5 15.2353ZM13.7453 14.3286C13.7329 13.5088 13.3988 12.7266 12.8152 12.1508C12.2315 11.5749 11.4449 11.2514 10.625 11.25H6.875C6.05507 11.2514 5.2685 11.5749 4.68483 12.1508C4.10116 12.7266 3.76712 13.5088 3.75469 14.3286C2.62129 13.3166 1.82202 11.9842 1.46271 10.5078C1.1034 9.03141 1.201 7.48071 1.74259 6.06104C2.28418 4.64136 3.2442 3.41967 4.49555 2.55773C5.74689 1.69579 7.23053 1.23427 8.75 1.23427C10.2695 1.23427 11.7531 1.69579 13.0045 2.55773C14.2558 3.41967 15.2158 4.64136 15.7574 6.06104C16.299 7.48071 16.3966 9.03141 16.0373 10.5078C15.678 11.9842 14.8787 13.3166 13.7453 14.3286Z" fill="#616161"/>
</svg>
